<?xml version="1.0" encoding="UTF-8"?>
<svg id="Layer_1" data-name="Layer 1" xmlns="http://www.w3.org/2000/svg" viewBox="0 0 250 100">
  <defs>
    <style>
      .cls-1, .cls-2, .cls-3 {
        fill: #231f20;
      }

      .cls-2 {
        font-size: 19.89px;
      }

      .cls-2, .cls-3 {
        font-family: Geologica-Medium, Geologica;
        font-weight: 500;
      }

      .cls-4 {
        fill: #eb2c30;
      }

      .cls-3 {
        font-size: 18.22px;
      }
    </style>
  </defs>
  <g>
    <rect class="cls-1" x="46.69" y="47.3" width="34.13" height="8.33" rx="4.17" ry="4.17" transform="translate(-17.72 60.16) rotate(-45)"/>
    <path class="cls-4" d="M80.07,43.65c-1.42,2.38-3.88,5.37-7.48,9.1-2.47,2.56-5.14,5.12-7.5,7.37-1.41,1.35-2.74,2.62-3.9,3.77l-1.65,1.63c-2.8,2.78-7.3,2.81-10.15.08l-.09-.09c-1.35-1.3-2.8-2.62-4.34-4.03-7.55-6.88-16.95-15.45-17.29-24.95-.11-3.19.96-6.11,3.01-8.21,2.2-2.25,5.44-3.54,8.89-3.54.06,0,.11,0,.17,0,5.27.07,7.77,2.26,11.4,5.82l2.68,2.62c.42.41,1.1.4,1.5-.03l2.58-2.72c3.09-3.26,5.26-5.28,9.41-5.75,2.39-.27,4.84.14,7.08,1.2,1.97.93,3.68,2.3,4.99,3.99l6.02-6.02c.4-.4.41-1.05.02-1.47-1.98-2.09-4.35-3.82-6.99-5.07-3.84-1.81-8.06-2.52-12.2-2.05-5,.57-8.53,2.58-11.24,4.81-.38.32-.93.32-1.32.01-.93-.73-1.92-1.41-3-2.03-3.21-1.83-6.74-2.74-10.81-2.8-6.1-.07-11.92,2.25-15.96,6.39-3.89,3.98-5.91,9.36-5.71,15.17.22,6.13,2.67,12.14,7.48,18.37,3.88,5.03,8.67,9.39,12.9,13.24,1.49,1.36,2.9,2.64,4.15,3.85l6.76,6.5c2.84,2.73,7.35,2.7,10.15-.08l8.22-8.15c1.1-1.09,2.4-2.33,3.78-3.65,2.42-2.32,5.17-4.95,7.76-7.63,2.96-3.06,5.25-5.72,6.99-8.1.31-.42.26-1-.11-1.37l-6.22-6.21Z"/>
  </g>
  <g>
    <text class="cls-2" transform="translate(102.5 45.81)"><tspan x="0" y="0">TWIN CITIES</tspan></text>
    <text class="cls-3" transform="translate(102.5 64.31)"><tspan x="0" y="0">CARDIOLOGY</tspan></text>
  </g>
</svg>