<svg width="207" height="66" viewBox="0 0 207 66" fill="none" xmlns="http://www.w3.org/2000/svg">
<path d="M51.9259 24.4064L33.6896 42.6427C32.0611 44.2712 32.0595 46.9099 33.6861 48.5364C35.3126 50.163 37.9513 50.1614 39.5798 48.5329L57.8161 30.2966C59.4446 28.6681 59.4462 26.0294 57.8196 24.4029C56.1931 22.7763 53.5544 22.7779 51.9259 24.4064Z" fill="#231F20"/>
<path d="M62.07 28.65C60.65 31.03 58.19 34.02 54.59 37.75C52.12 40.31 49.45 42.87 47.09 45.12C45.68 46.47 44.35 47.74 43.19 48.89L41.54 50.52C38.74 53.3 34.24 53.33 31.39 50.6L31.3 50.51C29.95 49.21 28.5 47.89 26.96 46.48C19.41 39.6 10.01 31.03 9.67 21.53C9.56 18.34 10.63 15.42 12.68 13.32C14.88 11.07 18.12 9.78 21.57 9.78C21.63 9.78 21.68 9.78 21.74 9.78C27.01 9.85 29.51 12.04 33.14 15.6L35.82 18.22C36.24 18.63 36.92 18.62 37.32 18.19L39.9 15.47C42.99 12.21 45.16 10.19 49.31 9.72C51.7 9.45 54.15 9.86 56.39 10.92C58.36 11.85 60.07 13.22 61.38 14.91L67.4 8.89C67.8 8.49 67.81 7.84 67.42 7.42C65.44 5.33 63.07 3.6 60.43 2.35C56.59 0.539999 52.37 -0.170001 48.23 0.299999C43.23 0.869999 39.7 2.88 36.99 5.11C36.61 5.43 36.06 5.43 35.67 5.12C34.74 4.39 33.75 3.71 32.67 3.09C29.46 1.26 25.93 0.349999 21.86 0.289999C15.76 0.219999 9.94 2.54 5.9 6.68C2.01 10.66 -0.0100017 16.04 0.189998 21.85C0.409998 27.98 2.86 33.99 7.67 40.22C11.55 45.25 16.34 49.61 20.57 53.46C22.06 54.82 23.47 56.1 24.72 57.31L31.48 63.81C34.32 66.54 38.83 66.51 41.63 63.73L49.85 55.58C50.95 54.49 52.25 53.25 53.63 51.93C56.05 49.61 58.8 46.98 61.39 44.3C64.35 41.24 66.64 38.58 68.38 36.2C68.69 35.78 68.64 35.2 68.27 34.83L62.05 28.62L62.07 28.65Z" fill="#EB2C30"/>
<path d="M88.836 29.92V18.3639H84.9873V15.997H95.2804V18.3639H91.4317V29.92H88.836ZM100.575 29.92L96.3678 15.997H99.0629L101.887 26.2205L104.871 15.997H107.516L110.49 26.2105L113.314 15.997H115.94L111.743 29.92H109.087L106.164 19.8557L103.21 29.92H100.575ZM118.096 29.92V15.997H120.682V29.92H118.096ZM124.195 29.92V15.997H126.701L133.295 25.584V15.997H135.811V29.92H133.305L126.711 20.2137V29.92H124.195ZM150.479 30.2183C149.034 30.2183 147.767 29.92 146.68 29.3233C145.593 28.7266 144.748 27.8879 144.144 26.8072C143.541 25.7199 143.239 24.4436 143.239 22.9784C143.239 21.911 143.415 20.9363 143.766 20.0546C144.124 19.1661 144.628 18.3971 145.278 17.7473C145.934 17.0909 146.703 16.5871 147.585 16.2357C148.474 15.8777 149.448 15.6986 150.509 15.6986C151.603 15.6986 152.538 15.8379 153.313 16.1163C154.089 16.3882 154.779 16.776 155.382 17.2799L154.059 19.3982C153.635 18.9938 153.138 18.6954 152.568 18.5031C152.004 18.3042 151.378 18.2048 150.688 18.2048C149.952 18.2048 149.292 18.3142 148.709 18.533C148.126 18.7518 147.628 19.07 147.217 19.4877C146.806 19.8988 146.491 20.396 146.272 20.9794C146.054 21.5629 145.944 22.2193 145.944 22.9486C145.944 23.9497 146.14 24.805 146.531 25.5144C146.922 26.2171 147.479 26.7575 148.202 27.1354C148.924 27.5133 149.783 27.7023 150.778 27.7023C151.447 27.7023 152.1 27.5995 152.737 27.394C153.38 27.1884 153.986 26.8603 154.557 26.4094L155.75 28.5874C155.087 29.1045 154.318 29.5056 153.443 29.7907C152.574 30.0758 151.586 30.2183 150.479 30.2183ZM157.992 29.92V15.997H160.578V29.92H157.992ZM166.667 29.92V18.3639H162.819V15.997H173.112V18.3639H169.263V29.92H166.667ZM175.357 29.92V15.997H177.943V29.92H175.357ZM181.456 29.92V15.997H190.715V18.2645H184.042V21.6358H189.751V23.7541H184.042V27.6326H190.785V29.92H181.456ZM198.435 30.2183C197.44 30.2183 196.469 30.0758 195.521 29.7907C194.58 29.499 193.784 29.0846 193.134 28.5476L194.387 26.5884C194.706 26.8801 195.087 27.1321 195.531 27.3442C195.975 27.5564 196.446 27.7222 196.943 27.8415C197.447 27.9542 197.948 28.0106 198.445 28.0106C199.274 28.0106 199.947 27.8581 200.464 27.5531C200.981 27.2415 201.239 26.794 201.239 26.2105C201.239 25.753 201.06 25.3718 200.702 25.0668C200.344 24.7552 199.685 24.4635 198.723 24.1917L197.371 23.8038C196.012 23.4193 195.027 22.9055 194.417 22.2623C193.814 21.6126 193.512 20.817 193.512 19.8755C193.512 19.259 193.638 18.6954 193.89 18.1849C194.142 17.6744 194.497 17.2335 194.954 16.8622C195.418 16.4909 195.965 16.2058 196.595 16.0069C197.225 15.808 197.911 15.7086 198.654 15.7086C199.628 15.7086 200.533 15.8511 201.369 16.1362C202.204 16.4147 202.887 16.7959 203.417 17.2799L202.134 19.1794C201.856 18.9208 201.528 18.6954 201.15 18.5031C200.772 18.3109 200.364 18.165 199.927 18.0656C199.489 17.9595 199.048 17.9064 198.604 17.9064C198.08 17.9064 197.623 17.9794 197.232 18.1252C196.84 18.2711 196.535 18.4799 196.317 18.7518C196.098 19.0236 195.988 19.3551 195.988 19.7463C195.988 20.0314 196.061 20.28 196.207 20.4921C196.36 20.7043 196.618 20.8999 196.983 21.0789C197.348 21.2513 197.851 21.4336 198.495 21.6259L199.907 22.0436C201.239 22.4347 202.211 22.9386 202.821 23.5552C203.431 24.1652 203.736 24.9608 203.736 25.942C203.736 26.784 203.523 27.5266 203.099 28.1697C202.675 28.8128 202.065 29.3167 201.269 29.6813C200.48 30.0393 199.535 30.2183 198.435 30.2183Z" fill="#231F20"/>
<path d="M91.952 49.3633C90.628 49.3633 89.468 49.09 88.472 48.5434C87.4759 47.9968 86.7016 47.2285 86.1489 46.2386C85.5962 45.2425 85.3199 44.0734 85.3199 42.7312C85.3199 41.7534 85.4808 40.8606 85.8027 40.0529C86.1307 39.2391 86.5923 38.5345 87.1875 37.9394C87.7887 37.3381 88.4932 36.8765 89.301 36.5546C90.1148 36.2267 91.0076 36.0627 91.9793 36.0627C92.9814 36.0627 93.8378 36.1902 94.5483 36.4453C95.2589 36.6943 95.8905 37.0496 96.4432 37.5112L95.2316 39.4516C94.8429 39.0811 94.3874 38.8078 93.8651 38.6317C93.3488 38.4495 92.7749 38.3584 92.1433 38.3584C91.4692 38.3584 90.8649 38.4586 90.3304 38.659C89.7959 38.8595 89.3404 39.151 88.9639 39.5336C88.5874 39.9102 88.2989 40.3657 88.0984 40.9001C87.898 41.4346 87.7978 42.0358 87.7978 42.7039C87.7978 43.621 87.977 44.4044 88.3353 45.0543C88.6936 45.698 89.2038 46.193 89.8658 46.5392C90.5278 46.8854 91.3143 47.0585 92.2253 47.0585C92.8387 47.0585 93.4369 46.9643 94.02 46.7761C94.6091 46.5878 95.1648 46.2872 95.6871 45.8742L96.7803 47.8693C96.1729 48.343 95.4684 48.7104 94.6668 48.9716C93.8712 49.2327 92.9662 49.3633 91.952 49.3633ZM97.3768 49.09L102.269 36.336H104.911L109.903 49.09H107.234L106.15 46.2021H101.021L99.9732 49.09H97.3768ZM101.604 44.1888H105.549L103.544 39.0143L101.604 44.1888ZM111.663 49.09V36.336H116.601C117.506 36.336 118.292 36.4909 118.96 36.8006C119.628 37.1043 120.145 37.5416 120.509 38.1124C120.873 38.6833 121.056 39.3636 121.056 40.1531C121.056 40.7847 120.925 41.3404 120.664 41.8202C120.403 42.3 120.041 42.6978 119.58 43.0136C119.124 43.3294 118.596 43.5511 117.995 43.6787L121.702 49.09H118.86L115.562 44.0977H114.032V49.09H111.663ZM114.032 42.1573H116.255C117.014 42.1573 117.606 41.9994 118.031 41.6836C118.456 41.3617 118.669 40.894 118.669 40.2806C118.669 39.6429 118.474 39.1571 118.086 38.823C117.697 38.489 117.126 38.322 116.373 38.322H114.032V42.1573ZM123.905 49.09V36.336H128.022C129.304 36.336 130.437 36.6063 131.42 37.1468C132.404 37.6873 133.173 38.4374 133.725 39.397C134.278 40.3565 134.554 41.4649 134.554 42.7221C134.554 43.6574 134.396 44.5168 134.081 45.3002C133.765 46.0776 133.315 46.7487 132.732 47.3135C132.155 47.8784 131.466 48.3156 130.664 48.6254C129.869 48.9351 128.988 49.09 128.022 49.09H123.905ZM126.273 46.8854H127.804C128.442 46.8854 129.022 46.7912 129.544 46.603C130.066 46.4147 130.516 46.1414 130.892 45.7831C131.275 45.4247 131.566 44.9875 131.767 44.4712C131.973 43.955 132.076 43.372 132.076 42.7221C132.076 41.8415 131.897 41.0914 131.539 40.4719C131.187 39.8464 130.689 39.3696 130.045 39.0417C129.407 38.7076 128.66 38.5406 127.804 38.5406H126.273V46.8854ZM136.983 49.09V36.336H139.351V49.09H136.983ZM148.518 49.3633C147.553 49.3633 146.657 49.1963 145.831 48.8622C145.011 48.5221 144.297 48.0515 143.69 47.4502C143.083 46.8489 142.612 46.1444 142.278 45.3367C141.944 44.5289 141.777 43.6544 141.777 42.713C141.777 41.7656 141.944 40.888 142.278 40.0802C142.612 39.2725 143.083 38.5679 143.69 37.9667C144.297 37.3654 145.011 36.8978 145.831 36.5637C146.657 36.2297 147.553 36.0627 148.518 36.0627C149.478 36.0627 150.368 36.2328 151.188 36.5729C152.008 36.913 152.721 37.3867 153.328 37.994C153.936 38.6014 154.41 39.3089 154.75 40.1166C155.09 40.9183 155.26 41.7838 155.26 42.713C155.26 43.6544 155.09 44.5289 154.75 45.3367C154.41 46.1444 153.936 46.8489 153.328 47.4502C152.721 48.0515 152.008 48.5221 151.188 48.8622C150.368 49.1963 149.478 49.3633 148.518 49.3633ZM148.518 47.1313C149.12 47.1313 149.678 47.0281 150.195 46.8216C150.717 46.609 151.169 46.3114 151.552 45.9288C151.941 45.5401 152.241 45.0755 152.454 44.535C152.673 43.9884 152.782 43.3811 152.782 42.713C152.782 41.8202 152.594 41.0428 152.217 40.3808C151.841 39.7188 151.33 39.2056 150.687 38.8412C150.043 38.4768 149.32 38.2946 148.518 38.2946C147.911 38.2946 147.349 38.3979 146.833 38.6044C146.317 38.8109 145.864 39.1085 145.476 39.4972C145.093 39.8859 144.792 40.3505 144.574 40.891C144.361 41.4315 144.255 42.0389 144.255 42.713C144.255 43.6058 144.44 44.3832 144.811 45.0452C145.187 45.7072 145.697 46.2203 146.341 46.5847C146.985 46.9491 147.711 47.1313 148.518 47.1313ZM157.676 49.09V36.336H160.044V46.9218H165.456V49.09H157.676ZM173.09 49.3633C172.125 49.3633 171.229 49.1963 170.403 48.8622C169.583 48.5221 168.87 48.0515 168.262 47.4502C167.655 46.8489 167.184 46.1444 166.85 45.3367C166.516 44.5289 166.349 43.6544 166.349 42.713C166.349 41.7656 166.516 40.888 166.85 40.0802C167.184 39.2725 167.655 38.5679 168.262 37.9667C168.87 37.3654 169.583 36.8978 170.403 36.5637C171.229 36.2297 172.125 36.0627 173.09 36.0627C174.05 36.0627 174.94 36.2328 175.76 36.5729C176.58 36.913 177.293 37.3867 177.901 37.994C178.508 38.6014 178.982 39.3089 179.322 40.1166C179.662 40.9183 179.832 41.7838 179.832 42.713C179.832 43.6544 179.662 44.5289 179.322 45.3367C178.982 46.1444 178.508 46.8489 177.901 47.4502C177.293 48.0515 176.58 48.5221 175.76 48.8622C174.94 49.1963 174.05 49.3633 173.09 49.3633ZM173.09 47.1313C173.692 47.1313 174.25 47.0281 174.767 46.8216C175.289 46.609 175.741 46.3114 176.124 45.9288C176.513 45.5401 176.813 45.0755 177.026 44.535C177.245 43.9884 177.354 43.3811 177.354 42.713C177.354 41.8202 177.166 41.0428 176.789 40.3808C176.413 39.7188 175.902 39.2056 175.259 38.8412C174.615 38.4768 173.892 38.2946 173.09 38.2946C172.483 38.2946 171.921 38.3979 171.405 38.6044C170.889 38.8109 170.436 39.1085 170.048 39.4972C169.665 39.8859 169.364 40.3505 169.146 40.891C168.933 41.4315 168.827 42.0389 168.827 42.713C168.827 43.6058 169.012 44.3832 169.383 45.0452C169.759 45.7072 170.269 46.2203 170.913 46.5847C171.557 46.9491 172.283 47.1313 173.09 47.1313ZM188.775 49.3633C187.773 49.3633 186.838 49.2084 185.97 48.8987C185.107 48.5889 184.351 48.1456 183.701 47.5686C183.051 46.9917 182.544 46.2963 182.18 45.4824C181.815 44.6625 181.633 43.7455 181.633 42.7312C181.633 41.717 181.806 40.7999 182.153 39.98C182.505 39.1601 182.997 38.4586 183.628 37.8756C184.26 37.2925 184.998 36.8462 185.842 36.5364C186.686 36.2206 187.603 36.0627 188.593 36.0627C189.049 36.0627 189.516 36.0991 189.996 36.172C190.476 36.2449 190.953 36.3664 191.426 36.5364C191.906 36.7065 192.365 36.9403 192.802 37.2379L191.791 39.0872C191.335 38.7957 190.846 38.5801 190.324 38.4404C189.802 38.2946 189.258 38.2218 188.693 38.2218C187.983 38.2218 187.342 38.325 186.771 38.5315C186.2 38.738 185.715 39.0386 185.314 39.4334C184.913 39.8221 184.606 40.2958 184.394 40.8546C184.181 41.4072 184.075 42.0328 184.075 42.7312C184.075 43.709 184.281 44.538 184.694 45.2182C185.113 45.8985 185.684 46.4147 186.407 46.7669C187.136 47.1131 187.968 47.2862 188.903 47.2862C189.334 47.2862 189.729 47.2467 190.087 47.1678C190.446 47.0828 190.743 46.9886 190.98 46.8854V44.0795H188.183V42.1482H193.085V48.2883C192.732 48.507 192.301 48.6983 191.791 48.8622C191.287 49.0262 190.764 49.1507 190.224 49.2358C189.69 49.3208 189.207 49.3633 188.775 49.3633ZM198.704 49.09V43.6422L194.213 36.336H196.9L199.943 41.3647L202.958 36.336H205.573L201.082 43.6604V49.09H198.704Z" fill="#231F20"/>
</svg>
