<svg width="34" height="27" viewBox="0 0 34 27" fill="none" xmlns="http://www.w3.org/2000/svg">
<g clip-path="url(#clip0_63_80)">
<path d="M33.4138 21.6673H32.2824V3.00001C32.2824 2.22377 31.9736 1.47932 31.4239 0.930429C30.8743 0.381543 30.1287 0.0731812 29.3514 0.0731812H4.64862C3.87126 0.0731812 3.12574 0.381543 2.57607 0.930429C2.02639 1.47932 1.71759 2.22377 1.71759 3.00001V21.6673H0.586207C0.430735 21.6673 0.281631 21.729 0.171696 21.8388C0.0617609 21.9486 0 22.0974 0 22.2527C0.00619307 23.5129 0.511473 24.7195 1.40551 25.6089C2.29954 26.4984 3.5097 26.9985 4.77172 27H29.2283C30.4903 26.9985 31.7005 26.4984 32.5945 25.6089C33.4885 24.7195 33.9938 23.5129 34 22.2527C34 22.0974 33.9382 21.9486 33.8283 21.8388C33.7184 21.729 33.5693 21.6673 33.4138 21.6673ZM7.36276 11.5288H9.08034L9.40276 11.2712C8.98676 10.6319 8.75093 9.89247 8.72004 9.13066C8.68916 8.36886 8.86437 7.61281 9.22725 6.942C9.59013 6.27118 10.1273 5.71037 10.7822 5.31851C11.4372 4.92666 12.1858 4.71823 12.9493 4.71513C13.5073 4.71453 14.0599 4.82442 14.575 5.03843C15.0902 5.25245 15.5578 5.56634 15.9507 5.96196L17.0645 7.07416L18.1724 5.96196C18.5666 5.56643 19.0352 5.25264 19.5513 5.03866C20.0674 4.82468 20.6208 4.71473 21.1797 4.71513C22.0182 4.71732 22.8372 4.96747 23.5335 5.43404C24.2298 5.9006 24.772 6.56266 25.0919 7.33666C25.4117 8.11066 25.4948 8.96193 25.3306 9.78303C25.1664 10.6041 24.7623 11.3583 24.1693 11.9503L17.4748 18.6351C17.365 18.7442 17.2164 18.8054 17.0616 18.8054C16.9067 18.8054 16.7581 18.7442 16.6483 18.6351L10.1648 12.161L9.66655 12.5707C9.55916 12.6538 9.42724 12.6991 9.29138 12.6995H7.36276C7.20729 12.6995 7.05818 12.6378 6.94825 12.5281C6.83831 12.4183 6.77655 12.2694 6.77655 12.1142C6.77655 11.9589 6.83831 11.81 6.94825 11.7002C7.05818 11.5905 7.20729 11.5288 7.36276 11.5288ZM29.2283 25.8293H4.77172C3.91919 25.8272 3.09488 25.524 2.44472 24.9733C1.79456 24.4227 1.36047 23.6601 1.21931 22.8205H32.7807C32.6395 23.6601 32.2054 24.4227 31.5553 24.9733C30.9051 25.524 30.0808 25.8272 29.2283 25.8293Z" fill="white"/>
<path d="M12.0813 9.07609C12.1465 9.02296 12.2223 8.98446 12.3037 8.96319C12.3851 8.94192 12.4701 8.93838 12.5529 8.95282C12.6358 8.96726 12.7145 8.99933 12.7839 9.04686C12.8532 9.09439 12.9115 9.15626 12.9548 9.22828L14.6548 12.0849L16.6127 9.7434C16.6678 9.67733 16.7369 9.62419 16.8149 9.58776C16.8929 9.55134 16.978 9.53253 17.0641 9.53267H20.5813C20.7368 9.53267 20.8859 9.59434 20.9959 9.70412C21.1058 9.8139 21.1676 9.96279 21.1676 10.118C21.1676 10.2733 21.1058 10.4222 20.9959 10.532C20.8859 10.6417 20.7368 10.7034 20.5813 10.7034H17.3396L15.03 13.4897C14.9687 13.5624 14.8907 13.619 14.8027 13.6548C14.7147 13.6906 14.6192 13.7045 14.5246 13.6953C14.43 13.6861 14.339 13.6541 14.2596 13.6019C14.1802 13.5498 14.1146 13.4792 14.0686 13.3961L12.31 10.4166L11.0848 11.4175L17.0641 17.3941L23.3424 11.1249C23.7696 10.6955 24.0603 10.1497 24.178 9.55602C24.2958 8.96232 24.2353 8.34711 24.0043 7.78756C23.7733 7.22801 23.3819 6.74904 22.8794 6.41073C22.3768 6.07241 21.7854 5.88982 21.1793 5.88584C20.7751 5.88524 20.3748 5.96459 20.0015 6.11931C19.6283 6.27404 19.2894 6.50107 19.0044 6.7873L17.4744 8.31511C17.3646 8.42414 17.216 8.48533 17.0612 8.48533C16.9063 8.48533 16.7577 8.42414 16.6479 8.31511L15.1238 6.7873C14.8384 6.50159 14.4995 6.2749 14.1263 6.12021C13.7531 5.96552 13.353 5.88588 12.9489 5.88584C12.4054 5.88145 11.8706 6.02226 11.3999 6.29368C10.9292 6.56511 10.5397 6.95728 10.2718 7.42955C10.004 7.90183 9.86744 8.43704 9.87639 8.97974C9.88533 9.52243 10.0394 10.0529 10.3227 10.5161L12.0813 9.07609Z" fill="white"/>
</g>
<defs>
<clipPath id="clip0_63_80">
<rect width="34" height="27" fill="white"/>
</clipPath>
</defs>
</svg>
