<svg width="42" height="36" viewBox="0 0 42 36" fill="none" xmlns="http://www.w3.org/2000/svg">
<g clip-path="url(#clip0_61_55)">
<path d="M15.1377 16.258C19.6325 16.258 23.2763 12.6143 23.2763 8.11941C23.2763 3.62457 19.6325 -0.0192261 15.1377 -0.0192261C10.6428 -0.0192261 6.99902 3.62457 6.99902 8.11941C6.99902 12.6143 10.6428 16.258 15.1377 16.258Z" fill="white"/>
<path d="M40.8515 26.0764H39.0178C39.3793 23.9672 38.4238 22.564 38.4238 22.564C35.0751 18.1822 30.7535 21.5912 30.7535 21.5912C28.0762 18.4921 24.4863 21.5912 24.4863 21.5912C23.2983 23.0117 22.9626 24.4407 23.1606 25.7923L22.317 26.5326C22.2911 26.4207 22.2568 26.3174 22.2309 26.2055C21.8866 24.3546 22.3944 22.5813 23.746 20.9714L23.789 20.9025L23.8493 20.8595C23.9095 20.8078 24.8565 19.9986 26.1908 19.551C25.0802 18.9398 23.789 18.5868 22.4374 18.5868H21.3785L16.9624 29.0808L15.2062 22.013L16.2995 19.7489L12.813 19.835L14.1559 22.1249L13.2521 28.3576L8.79276 18.5867H7.83723C3.52423 18.5867 0.0205078 22.0819 0.0205078 26.3948V36.0193H30.2542V35.1326C29.7634 34.8657 24.6758 31.9474 22.8077 27.9616L23.5738 27.2901C25.244 31.2587 30.7535 34.3062 30.7535 34.3062C35.5916 31.9043 37.7437 29.4853 38.6046 27.4795H40.8515C41.2389 27.4795 41.5574 27.161 41.5574 26.7736C41.5574 26.3861 41.2389 26.0764 40.8515 26.0764ZM40.8515 27.2644H34.5241C34.3347 27.2644 34.1625 27.1525 34.085 26.9716L33.6804 26.0764L31.9328 30.0622C31.8553 30.2429 31.6746 30.3548 31.4851 30.3548H31.4594C31.2614 30.3462 31.0806 30.2085 31.0203 30.0191L29.066 23.8983L27.2324 27.4796C27.1636 27.6259 27.0258 27.7206 26.8708 27.7465C26.7158 27.7637 26.5609 27.712 26.449 27.6001L24.8219 25.9128L21.7659 28.5901C21.5679 28.7709 21.2579 28.7451 21.0772 28.5471C20.905 28.3405 20.9222 28.0391 21.1289 27.8585L24.5378 24.8798C24.7273 24.7076 25.0199 24.7163 25.2007 24.9056L26.6814 26.4293L28.7389 22.4091C28.8335 22.2283 29.023 22.125 29.2123 22.1422C29.4104 22.1594 29.5739 22.2885 29.6342 22.478L31.5539 28.4954L33.2325 24.6818C33.31 24.5096 33.4564 24.3719 33.6802 24.3891C33.8696 24.3891 34.0418 24.501 34.1193 24.6818L34.8424 26.2917H40.8513C41.1267 26.2917 41.342 26.5069 41.342 26.7737C41.342 27.0406 41.127 27.2644 40.8515 27.2644Z" fill="white"/>
</g>
<defs>
<clipPath id="clip0_61_55">
<rect width="41.5775" height="36" fill="white"/>
</clipPath>
</defs>
</svg>
