<svg width="22" height="22" viewBox="0 0 22 22" fill="none" xmlns="http://www.w3.org/2000/svg">
<path d="M17.5716 20.0233C17.3288 19.8089 17.0053 19.709 16.6838 19.7492L15.5854 19.8865C15.1984 19.9348 14.8054 19.8181 14.5075 19.566L11.2161 16.781C10.9011 16.5145 10.7205 16.125 10.7205 15.7123V7.90006C10.7205 7.72208 10.5762 7.57779 10.3982 7.57779C10.2203 7.57779 10.076 7.72208 10.076 7.90006V15.7123C10.076 16.3149 10.3398 16.8838 10.7998 17.273L14.0912 20.058C14.5262 20.426 15.0999 20.5967 15.6654 20.526L16.7639 20.3887C16.9039 20.3713 17.0393 20.413 17.1452 20.5064C17.251 20.5999 17.3093 20.7291 17.3093 20.8702C17.3093 21.1378 17.0916 21.3554 16.824 21.3554H7.52488C6.94437 21.3554 6.42179 21.0817 6.0911 20.6046C5.76042 20.1275 5.68771 19.5421 5.89156 18.9985L6.28648 17.9453C6.71758 16.7957 6.79678 15.5564 6.51563 14.3612L5.19276 8.73906L5.80257 8.1293L7.22943 14.1933C7.54396 15.5305 7.45527 16.9169 6.97295 18.2028L6.57828 19.2558C6.45986 19.5713 6.50201 19.9108 6.69378 20.187C6.88546 20.4636 7.18839 20.6222 7.52492 20.6222H8.33153C8.5095 20.6222 8.65379 20.4779 8.65379 20.2999C8.65379 20.1219 8.5095 19.9776 8.33153 19.9776H7.52492C7.39752 19.9776 7.29607 19.9245 7.22332 19.8196C7.15084 19.7152 7.13683 19.6017 7.18169 19.4821L7.57635 18.429C8.10366 17.0233 8.20064 15.5076 7.85677 14.0457L6.38148 7.77575C6.14486 6.77007 6.04332 5.74355 6.07525 4.72172L8.38902 7.03549C8.58839 7.23486 8.69818 7.49989 8.69818 7.78185V8.45547L7.75923 9.39442C7.63337 9.52027 7.63337 9.72429 7.75923 9.85014C7.82213 9.91309 7.90463 9.94455 7.98709 9.94455C8.06955 9.94455 8.15205 9.91309 8.21495 9.85014L8.69813 9.36696V10.6556C8.69813 10.8336 8.84242 10.9779 9.0204 10.9779C9.19837 10.9779 9.34266 10.8336 9.34266 10.6556V7.78185C9.34266 7.32776 9.16585 6.90087 8.84474 6.57976L8.42064 6.15566H10.0759V6.52227C10.0759 6.70025 10.2202 6.84454 10.3982 6.84454C10.5762 6.84454 10.7205 6.70025 10.7205 6.52227V0.322335C10.7205 0.144359 10.5762 7.03514e-05 10.3982 7.03514e-05C10.2202 7.03514e-05 10.0759 0.144359 10.0759 0.322335V5.51113H7.77612L6.13325 3.86827C6.18602 3.36387 6.27123 2.86234 6.38943 2.36682H7.70174C7.97184 2.36682 8.22574 2.26164 8.41673 2.07068L9.2483 1.23911C9.37416 1.11326 9.37416 0.9092 9.2483 0.783345C9.12249 0.65749 8.91843 0.65749 8.79258 0.783345L7.96097 1.61492C7.89174 1.68414 7.7997 1.72229 7.70174 1.72229H6.56298C6.59706 1.60856 6.63255 1.49516 6.67015 1.38224L7.01656 0.432764C7.07753 0.265573 6.99147 0.0805505 6.82428 0.0195781C6.65713 -0.0413514 6.47206 0.0446717 6.41105 0.211862L6.06304 1.16568C6.06201 1.16851 6.06102 1.17139 6.06008 1.17423C5.3923 3.17785 5.24952 5.31202 5.63959 7.38074L5.01977 8.00056C4.48644 5.65968 4.60495 3.22125 5.36459 0.942371L5.53728 0.424299C5.59357 0.255476 5.5023 0.0729451 5.33344 0.0166562C5.16457 -0.0396326 4.98213 0.0516326 4.92579 0.220456L4.7531 0.738528C3.94581 3.16037 3.82816 5.75395 4.41288 8.23891L5.88816 14.5089C6.14004 15.5793 6.06906 16.6894 5.68294 17.7191L5.28802 18.7723C5.01298 19.5057 5.11516 20.3279 5.5613 20.9717C6.00749 21.6155 6.74152 21.9999 7.52483 21.9999H16.8239C17.4469 21.9999 17.9537 21.4931 17.9537 20.8702C17.9537 20.5463 17.8145 20.2376 17.5716 20.0233Z" fill="#FF1111"/>
</svg>
