<svg width="23" height="37" viewBox="0 0 23 37" fill="none" xmlns="http://www.w3.org/2000/svg">
<path d="M20.5083 32.2658C19.8926 32.635 19.208 32.8747 18.4964 32.97C18.1206 33.0227 16.3517 32.8607 14.1489 32.5074C11.8539 32.1393 10.0967 31.7271 9.5625 31.4315C9.41175 31.3482 9.2475 31.2627 9.0396 31.1615C7.9254 30.6215 6.723 29.9613 5.77575 29.3066C5.75463 29.2894 5.73187 29.2743 5.7078 29.2616C4.9878 28.7562 4.42215 28.2576 4.17285 27.8256C4.29525 27.3306 4.8501 25.5477 5.39415 24.8696C5.44455 24.8066 5.51835 24.7062 5.61915 24.5672C6.12225 23.8854 7.4583 22.0733 8.4501 21.5778C8.77185 21.4199 11.5767 19.9556 10.9652 17.1462C10.7827 16.3304 10.3883 15.5771 9.8217 14.9624L9.40275 14.5052C9.23823 14.3258 9.11407 14.1133 9.03861 13.8819C8.96316 13.6505 8.93818 13.4056 8.96535 13.1637C9.108 11.9222 9.62325 9.75902 11.4732 9.21767C11.5831 9.18667 11.6969 9.17152 11.8112 9.17267H16.9457C17.1589 9.17591 17.3651 9.24968 17.532 9.38246C17.6989 9.51524 17.8171 9.69956 17.8682 9.90662C18.0135 10.5006 18.0617 11.0285 18.0113 11.4762C17.9855 11.707 17.8756 11.9203 17.7027 12.0752C17.5297 12.2302 17.3057 12.316 17.0735 12.3164L13.3551 12.3218C13.2382 12.3215 13.1257 12.3664 13.0411 12.447C12.9565 12.5277 12.9063 12.6379 12.9009 12.7546C12.8956 12.8714 12.9355 12.9857 13.0124 13.0738C13.0893 13.1618 13.1973 13.2168 13.3137 13.2272C14.2587 13.3136 17.3696 13.9697 20.1893 18.6947C19.9125 20.2634 19.2645 23.0655 18.4469 24.3885C18.3758 24.5037 18.3119 24.6225 18.2511 24.7431C17.1567 24.8889 15.3468 25.0262 13.9671 24.6135H13.9604C13.7142 24.5416 13.476 24.445 13.2494 24.3251C13.0634 24.2271 12.8904 24.1061 12.7346 23.9651C12.3911 23.3137 11.8102 22.8195 11.1122 22.585C10.4142 22.3504 9.65272 22.3934 8.9856 22.7051C8.87741 22.7556 8.79371 22.8469 8.75291 22.9591C8.7121 23.0713 8.71754 23.1952 8.76803 23.3033C8.81851 23.4115 8.90991 23.4952 9.0221 23.536C9.1343 23.5768 9.25811 23.5714 9.3663 23.5209C9.81135 23.3156 10.3168 23.2829 10.7846 23.4292C11.2524 23.5755 11.6492 23.8902 11.898 24.3125C11.439 24.4236 11.0146 24.6465 10.6625 24.9614C10.3105 25.2762 10.0417 25.6732 9.8802 26.117C9.85865 26.1728 9.84845 26.2323 9.85018 26.2921C9.85192 26.3519 9.86557 26.4108 9.89032 26.4653C9.91508 26.5197 9.95045 26.5687 9.99436 26.6094C10.0383 26.65 10.0898 26.6815 10.1461 26.7019C10.2023 26.7224 10.262 26.7314 10.3218 26.7285C10.3815 26.7256 10.4401 26.7109 10.4941 26.6851C10.5481 26.6592 10.5964 26.6229 10.6361 26.5782C10.6759 26.5336 10.7064 26.4814 10.7258 26.4248C10.8807 25.9911 11.1836 25.626 11.5813 25.3938C11.979 25.1615 12.4459 25.0771 12.8997 25.1553H12.9024C12.4735 25.5704 12.1846 26.1088 12.0759 26.6957C11.9672 27.2826 12.044 27.8888 12.2958 28.43C12.3208 28.4835 12.356 28.5317 12.3996 28.5716C12.4432 28.6115 12.4942 28.6425 12.5497 28.6627C12.6053 28.683 12.6642 28.692 12.7233 28.6895C12.7823 28.6869 12.8403 28.6727 12.8939 28.6478C12.9474 28.6228 12.9955 28.5875 13.0355 28.544C13.0754 28.5004 13.1064 28.4494 13.1266 28.3939C13.1468 28.3383 13.1559 28.2793 13.1534 28.2203C13.1508 28.1613 13.1366 28.1033 13.1117 28.0497C12.9084 27.6071 12.8754 27.1052 13.0189 26.6398C13.1624 26.1744 13.4725 25.7782 13.8897 25.527C14.6169 25.7192 15.4197 25.7894 16.2009 25.7894C16.7747 25.7873 17.3479 25.754 17.9181 25.6895C17.5163 27.4728 18.2237 29.3795 18.711 30.6903C18.7317 30.7457 18.7631 30.7965 18.8034 30.8398C18.8437 30.883 18.8921 30.918 18.9459 30.9425C18.9997 30.9671 19.0578 30.9808 19.1169 30.9829C19.176 30.9849 19.235 30.9754 19.2904 30.9547C19.3458 30.934 19.3966 30.9026 19.4398 30.8623C19.4831 30.822 19.518 30.7736 19.5426 30.7198C19.5671 30.666 19.5808 30.6079 19.5829 30.5488C19.585 30.4897 19.5754 30.4307 19.5548 30.3753C19.0526 29.0222 18.2948 26.9783 18.9698 25.3353C18.9714 25.3317 18.9729 25.3279 18.9743 25.3241L18.9797 25.311C19.0453 25.1552 19.1229 25.0048 19.2119 24.861C19.994 23.5952 20.5619 21.3384 20.8643 19.9196C20.8913 19.9727 20.9183 20.0262 20.9453 20.0802C20.993 20.1828 22.4046 23.2518 22.3583 28.0403C22.3551 28.3494 22.361 28.682 22.3767 29.0874C22.4064 29.8344 22.2021 31.2398 20.5083 32.2658Z" fill="#FF1111"/>
<path d="M10.0872 17.3375C10.5534 19.475 8.31285 20.645 8.0559 20.7692L8.0487 20.7728C6.8643 21.3646 5.4837 23.2343 4.89645 24.0326C4.80645 24.1582 4.73085 24.2576 4.6917 24.3058C4.28175 24.8174 3.9132 25.7237 3.67605 26.3942C3.53835 26.783 3.4407 27.1048 3.3867 27.2906C3.1419 27.1781 2.68605 26.8546 2.07 26.1656C0.370797 24.263 -0.344253 21.6512 0.157047 19.1794C0.445947 17.7538 0.994947 16.5172 1.4049 15.7306C1.87297 14.8299 2.11775 13.83 2.1186 12.815V8.54001C2.11495 8.28178 2.17456 8.02657 2.29222 7.79667C2.40988 7.56677 2.58201 7.36915 2.7936 7.22106C3.4614 6.76746 4.3812 6.92316 5.0355 7.13421C5.10255 7.15581 5.1705 7.17561 5.238 7.19316C5.31095 7.24067 5.39619 7.26584 5.48325 7.26561C5.50692 7.26573 5.53056 7.26377 5.5539 7.25976C6.09437 7.34899 6.64797 7.31578 7.1739 7.16256C7.71165 7.00686 8.41365 6.88086 9.0684 6.99831C9.07875 7.00056 9.08955 7.00281 9.10035 7.00416H9.1044C9.34264 7.04828 9.57213 7.1308 9.7839 7.24851C10.228 7.49961 10.5646 7.92351 10.7874 8.50851C8.79255 9.36576 8.2287 11.6914 8.07165 13.0603C8.02973 13.43 8.06765 13.8045 8.18286 14.1583C8.29806 14.5122 8.48786 14.8372 8.73945 15.1114L9.15795 15.5686C9.61803 16.0661 9.93858 16.6763 10.0872 17.3375Z" fill="#FF1111"/>
<path d="M8.7206 1.52269C8.7206 1.86424 8.12525 2.24584 7.3283 2.24584C6.53135 2.24584 5.93555 1.86424 5.93555 1.52269C5.93555 1.18114 6.5309 0.799988 7.3283 0.799988C8.1257 0.799988 8.7206 1.18159 8.7206 1.52269Z" fill="#FF1111"/>
<path d="M8.72015 2.8205V6.056C8.069 6.02675 7.43405 6.14915 6.92555 6.29585C6.60443 6.38946 6.26906 6.42437 5.93555 6.3989V2.8205C6.36636 3.04078 6.84448 3.15247 7.3283 3.14585C7.8557 3.14585 8.33675 3.0257 8.72015 2.8205Z" fill="#FF1111"/>
<path d="M8.7206 32.0084V34.7799C8.3372 34.5747 7.85615 34.4546 7.3283 34.4546C6.84447 34.4479 6.36636 34.5596 5.93555 34.7799V30.4874C6.81275 31.0304 7.71839 31.5261 8.6486 31.9724L8.7206 32.0084Z" fill="#FF1111"/>
<path d="M8.7206 36.0773C8.7206 36.4184 8.12525 36.8 7.3283 36.8C6.53135 36.8 5.93555 36.4184 5.93555 36.0773C5.93555 35.7362 6.5309 35.3546 7.3283 35.3546C8.1257 35.3546 8.7206 35.7362 8.7206 36.0773Z" fill="#FF1111"/>
<path d="M16.494 4.76947V8.27002H13.709V4.76947C14.1421 4.98349 14.6187 5.09482 15.1017 5.09482C15.5848 5.09482 16.0614 4.98349 16.4945 4.76947H16.494Z" fill="#FF1111"/>
<path d="M16.4948 3.47211C16.4948 3.81321 15.899 4.19481 15.102 4.19481C14.3051 4.19481 13.707 3.81321 13.707 3.47211C13.707 3.13101 14.3028 2.74896 15.102 2.74896C15.9012 2.74896 16.4948 3.13056 16.4948 3.47211Z" fill="#FF1111"/>
</svg>
