<svg width="23" height="37" viewBox="0 0 23 37" fill="none" xmlns="http://www.w3.org/2000/svg">
<path d="M21.1265 32.2658C20.5108 32.635 19.8261 32.8747 19.1145 32.97C18.7388 33.0227 16.9698 32.8607 14.7671 32.5074C12.4721 32.1393 10.7148 31.7271 10.1807 31.4315C10.0299 31.3482 9.86567 31.2627 9.65777 31.1615C8.54357 30.6215 7.34117 29.9613 6.39392 29.3066C6.37279 29.2894 6.35003 29.2743 6.32597 29.2616C5.60597 28.7562 5.04032 28.2576 4.79102 27.8256C4.91342 27.3306 5.46826 25.5477 6.01232 24.8696C6.06272 24.8066 6.13652 24.7062 6.23732 24.5672C6.74042 23.8854 8.07647 22.0733 9.06827 21.5778C9.39002 21.4199 12.1949 19.9556 11.5833 17.1462C11.4009 16.3304 11.0065 15.5771 10.4399 14.9624L10.0209 14.5052C9.8564 14.3258 9.73223 14.1133 9.65678 13.8819C9.58133 13.6505 9.55635 13.4056 9.58352 13.1637C9.72617 11.9222 10.2414 9.75902 12.0914 9.21767C12.2013 9.18667 12.3151 9.17152 12.4293 9.17267H17.5638C17.7771 9.17591 17.9832 9.24968 18.1501 9.38246C18.317 9.51524 18.4352 9.69956 18.4863 9.90662C18.6317 10.5006 18.6798 11.0285 18.6294 11.4762C18.6037 11.707 18.4938 11.9203 18.3208 12.0752C18.1478 12.2302 17.9239 12.316 17.6916 12.3164L13.9733 12.3218C13.8564 12.3215 13.7439 12.3664 13.6593 12.447C13.5747 12.5277 13.5244 12.6379 13.5191 12.7546C13.5138 12.8714 13.5537 12.9857 13.6306 13.0738C13.7075 13.1618 13.8154 13.2168 13.9319 13.2272C14.8769 13.3136 17.9877 13.9697 20.8074 18.6947C20.5307 20.2634 19.8827 23.0655 19.065 24.3885C18.9939 24.5037 18.93 24.6225 18.8693 24.7431C17.7749 24.8889 15.965 25.0262 14.5853 24.6135H14.5785C14.3324 24.5416 14.0942 24.445 13.8675 24.3251C13.6815 24.2271 13.5086 24.1061 13.3527 23.9651C13.0093 23.3137 12.4283 22.8195 11.7303 22.585C11.0324 22.3504 10.2709 22.3934 9.60377 22.7051C9.49558 22.7556 9.41188 22.8469 9.37107 22.9591C9.33027 23.0713 9.33571 23.1952 9.38619 23.3033C9.43667 23.4115 9.52807 23.4952 9.64027 23.536C9.75247 23.5768 9.87628 23.5714 9.98447 23.5209C10.4295 23.3156 10.9349 23.2829 11.4027 23.4292C11.8705 23.5755 12.2673 23.8902 12.5162 24.3125C12.0571 24.4236 11.6327 24.6465 11.2807 24.9614C10.9286 25.2762 10.6599 25.6732 10.4984 26.117C10.4768 26.1728 10.4666 26.2323 10.4683 26.2921C10.4701 26.3519 10.4837 26.4108 10.5085 26.4653C10.5332 26.5197 10.5686 26.5687 10.6125 26.6094C10.6564 26.65 10.708 26.6815 10.7642 26.7019C10.8204 26.7224 10.8802 26.7314 10.9399 26.7285C10.9997 26.7256 11.0583 26.7109 11.1123 26.6851C11.1662 26.6592 11.2145 26.6229 11.2543 26.5782C11.2941 26.5336 11.3245 26.4814 11.3439 26.4248C11.4988 25.9911 11.8018 25.626 12.1995 25.3938C12.5972 25.1615 13.064 25.0771 13.5179 25.1553H13.5206C13.0917 25.5704 12.8028 26.1088 12.694 26.6957C12.5853 27.2826 12.6622 27.8888 12.914 28.43C12.9389 28.4835 12.9742 28.5317 13.0178 28.5716C13.0613 28.6115 13.1123 28.6425 13.1679 28.6627C13.2234 28.683 13.2824 28.692 13.3414 28.6895C13.4005 28.6869 13.4584 28.6727 13.512 28.6478C13.5656 28.6228 13.6137 28.5875 13.6536 28.544C13.6936 28.5004 13.7246 28.4494 13.7448 28.3939C13.765 28.3383 13.7741 28.2793 13.7715 28.2203C13.769 28.1613 13.7548 28.1033 13.7298 28.0497C13.5265 27.6071 13.4935 27.1052 13.6371 26.6398C13.7806 26.1744 14.0906 25.7782 14.5079 25.527C15.2351 25.7192 16.0379 25.7894 16.8191 25.7894C17.3929 25.7873 17.9661 25.754 18.5363 25.6895C18.1344 27.4728 18.8418 29.3795 19.3292 30.6903C19.3499 30.7457 19.3812 30.7965 19.4216 30.8398C19.4619 30.883 19.5103 30.918 19.5641 30.9425C19.6179 30.9671 19.676 30.9808 19.7351 30.9829C19.7942 30.9849 19.8531 30.9754 19.9085 30.9547C19.9639 30.934 20.0147 30.9026 20.058 30.8623C20.1013 30.822 20.1362 30.7736 20.1607 30.7198C20.1853 30.666 20.199 30.6079 20.2011 30.5488C20.2032 30.4897 20.1936 30.4307 20.1729 30.3753C19.6707 29.0222 18.9129 26.9783 19.5879 25.3353C19.5896 25.3317 19.5911 25.3279 19.5924 25.3241L19.5978 25.311C19.6634 25.1552 19.7411 25.0048 19.83 24.861C20.6121 23.5952 21.18 21.3384 21.4824 19.9196C21.5094 19.9727 21.5364 20.0262 21.5634 20.0802C21.6111 20.1828 23.0228 23.2518 22.9764 28.0403C22.9733 28.3494 22.9791 28.682 22.9949 29.0874C23.0246 29.8344 22.8203 31.2398 21.1265 32.2658Z" fill="white"/>
<path d="M10.7054 17.3375C11.1716 19.475 8.93101 20.645 8.67406 20.7692L8.66686 20.7728C7.48246 21.3646 6.10186 23.2343 5.51461 24.0326C5.42461 24.1582 5.34901 24.2576 5.30986 24.3058C4.89991 24.8174 4.53136 25.7237 4.29421 26.3942C4.15651 26.783 4.05886 27.1048 4.00486 27.2906C3.76006 27.1781 3.30421 26.8546 2.68816 26.1656C0.988961 24.263 0.273911 21.6512 0.775211 19.1794C1.06411 17.7538 1.61311 16.5172 2.02306 15.7306C2.49114 14.8299 2.73591 13.83 2.73676 12.815V8.54001C2.73312 8.28178 2.79273 8.02657 2.91038 7.79667C3.02804 7.56677 3.20017 7.36915 3.41176 7.22106C4.07956 6.76746 4.99936 6.92316 5.65366 7.13421C5.72071 7.15581 5.78866 7.17561 5.85616 7.19316C5.92912 7.24067 6.01435 7.26584 6.10141 7.26561C6.12509 7.26573 6.14873 7.26377 6.17206 7.25976C6.71253 7.34899 7.26614 7.31578 7.79206 7.16256C8.32981 7.00686 9.03181 6.88086 9.68656 6.99831C9.69691 7.00056 9.70771 7.00281 9.71851 7.00416H9.72256C9.9608 7.04828 10.1903 7.1308 10.4021 7.24851C10.8462 7.49961 11.1828 7.92351 11.4056 8.50851C9.41071 9.36576 8.84686 11.6914 8.68981 13.0603C8.64789 13.43 8.68581 13.8045 8.80102 14.1583C8.91622 14.5122 9.10603 14.8372 9.35761 15.1114L9.77611 15.5686C10.2362 16.0661 10.5567 16.6763 10.7054 17.3375Z" fill="white"/>
<path d="M9.33876 1.52269C9.33876 1.86424 8.74341 2.24584 7.94646 2.24584C7.14951 2.24584 6.55371 1.86424 6.55371 1.52269C6.55371 1.18114 7.14906 0.799988 7.94646 0.799988C8.74386 0.799988 9.33876 1.18159 9.33876 1.52269Z" fill="white"/>
<path d="M9.33831 2.8205V6.056C8.68716 6.02675 8.05221 6.14915 7.54371 6.29585C7.2226 6.38946 6.88722 6.42437 6.55371 6.3989V2.8205C6.98453 3.04078 7.46264 3.15247 7.94646 3.14585C8.47386 3.14585 8.95491 3.0257 9.33831 2.8205Z" fill="white"/>
<path d="M9.33876 32.0084V34.7799C8.95536 34.5747 8.47431 34.4546 7.94646 34.4546C7.46264 34.4479 6.98453 34.5596 6.55371 34.7799V30.4874C7.43091 31.0304 8.33655 31.5261 9.26676 31.9724L9.33876 32.0084Z" fill="white"/>
<path d="M9.33876 36.0773C9.33876 36.4184 8.74341 36.8 7.94646 36.8C7.14951 36.8 6.55371 36.4184 6.55371 36.0773C6.55371 35.7362 7.14906 35.3546 7.94646 35.3546C8.74386 35.3546 9.33876 35.7362 9.33876 36.0773Z" fill="white"/>
<path d="M17.1122 4.76947V8.27002H14.3271V4.76947C14.7602 4.98349 15.2368 5.09482 15.7199 5.09482C16.203 5.09482 16.6796 4.98349 17.1127 4.76947H17.1122Z" fill="white"/>
<path d="M17.1129 3.47211C17.1129 3.81321 16.5171 4.19481 15.7202 4.19481C14.9232 4.19481 14.3252 3.81321 14.3252 3.47211C14.3252 3.13101 14.921 2.74896 15.7202 2.74896C16.5194 2.74896 17.1129 3.13056 17.1129 3.47211Z" fill="white"/>
</svg>
