<svg width="22" height="22" viewBox="0 0 22 22" fill="none" xmlns="http://www.w3.org/2000/svg">
<g clip-path="url(#clip0_85_7)">
<path d="M18.4207 12.6253C17.7992 11.3841 16.6588 10.5105 15.2912 10.23L14.1701 10.0018C13.0609 9.7726 11.9426 10.2328 11.3257 11.1687C9.61059 13.7702 10.1844 17.7366 12.6328 20.1988L14.1545 21.7296C14.3342 21.9102 14.5698 22 14.8044 22C15.0382 22 15.2719 21.9111 15.4507 21.7333C15.81 21.3767 15.8118 20.7964 15.4543 20.4371L13.9327 18.9063C13.2663 18.2362 12.7841 17.4075 12.4935 16.5367H12.5586C13.8034 16.5367 14.9887 17.0766 15.8091 18.0189C15.9897 18.227 16.2454 18.3333 16.5003 18.3333C16.7138 18.3333 16.9293 18.2591 17.1016 18.1078C17.4838 17.776 17.5242 17.1967 17.1914 16.8144C16.0236 15.4724 14.3351 14.7033 12.5586 14.7033H12.1773C12.1672 13.7803 12.3835 12.8948 12.8565 12.1779C13.0563 11.8754 13.4441 11.7214 13.8034 11.7984L14.9227 12.0267C15.7238 12.1908 16.4187 12.7215 16.7798 13.4457L17.559 15.004C17.7845 15.4559 18.3373 15.6393 18.7892 15.4138C19.242 15.1873 19.4253 14.6364 19.1989 14.1836L18.4207 12.6253Z" fill="#FF1111"/>
<path d="M20.9311 11.3822L20.372 10.5398C19.062 8.39847 17.3167 7.19122 14.9095 6.78697C15.1433 4.32481 14.1799 1.87456 12.3337 0.23189C11.956 -0.10361 11.3758 -0.0715266 11.0394 0.307057C10.703 0.68564 10.7369 1.26497 11.1145 1.60139C12.5262 2.85814 13.2632 4.73181 13.0826 6.62747C13.0093 7.55514 13.6381 8.37922 14.5465 8.54606C16.4605 8.89806 17.7741 9.80831 18.8255 11.5252L19.4021 12.3961C19.579 12.6619 19.8705 12.8058 20.1675 12.8058C20.3408 12.8058 20.5177 12.7563 20.6735 12.6527C21.0952 12.3741 21.2107 11.8048 20.9311 11.3822Z" fill="#FF1111"/>
<path d="M10.0901 19.4324C9.81147 18.8595 9.5328 18.282 9.27247 17.7916C9.09738 17.2893 8.7078 16.8795 8.21372 16.6833C7.7013 16.4808 7.14122 16.5248 6.68197 16.8025C5.94588 17.2398 5.35005 17.8796 4.95497 18.656L3.94663 20.6727C3.72022 21.1255 3.90355 21.6764 4.35638 21.9028C4.48838 21.9688 4.62863 22 4.76613 22C5.10255 22 5.42705 21.8139 5.58747 21.4931L6.59305 19.481C6.82772 19.019 7.18247 18.6377 7.54272 18.3966C7.56105 18.4608 7.5858 18.5222 7.61697 18.5808C7.87638 19.0676 8.15963 19.6506 8.44105 20.2318C8.65005 20.6626 8.85813 21.0916 9.05522 21.4803C9.28438 21.9303 9.83805 22.1109 10.2881 21.8818C10.7391 21.6526 10.9188 21.0998 10.6896 20.6488C10.4962 20.2703 10.2936 19.8523 10.0901 19.4324Z" fill="#FF1111"/>
<path d="M6.44145 15.1415C7.21512 14.8546 7.80454 14.2634 8.05662 13.5319C8.1492 13.2807 8.26654 13.0176 8.40679 12.7545L9.58929 10.5545C11.3337 7.31227 10.5481 3.23769 7.71562 0.860775L6.92729 0.209941C6.53495 -0.113642 5.95837 -0.055892 5.6357 0.333691C5.31395 0.724191 5.36895 1.30169 5.75945 1.62344L6.54229 2.26969C7.01712 2.66753 7.40212 3.13594 7.72204 3.63828C6.1747 3.74736 4.72362 4.55036 3.81979 5.90886C3.53929 6.33053 3.65387 6.89978 4.07554 7.17936C4.23137 7.28386 4.40829 7.33336 4.58245 7.33336C4.87854 7.33336 5.17095 7.18944 5.34695 6.92453C6.0537 5.86211 7.27654 5.31944 8.5012 5.47894C8.8312 6.86769 8.68545 8.36552 7.97504 9.68553L6.7907 11.8892C6.6092 12.2311 6.4552 12.573 6.32962 12.9195C6.2517 13.1441 6.06104 13.3274 5.81995 13.4164C4.03887 14.0415 2.81695 15.0205 1.8572 16.5917L1.05054 17.9209C0.787455 18.3535 0.924955 18.9173 1.35854 19.1804C1.50704 19.2702 1.67112 19.3133 1.83337 19.3133C2.1432 19.3133 2.4457 19.1565 2.61712 18.8724L3.42287 17.545C4.15437 16.3469 5.05362 15.6292 6.44145 15.1415Z" fill="#FF1111"/>
</g>
<defs>
<clipPath id="clip0_85_7">
<rect width="22" height="22" fill="white"/>
</clipPath>
</defs>
</svg>
