<svg width="70" height="70" viewBox="0 0 70 70" fill="none" xmlns="http://www.w3.org/2000/svg">
<circle cx="35" cy="35" r="35" fill="#273353"/>
<g clip-path="url(#clip0_38_10)">
<path d="M26.8715 38.4335L29.783 34.5513C31.4811 32.2868 34.9381 32.6417 36.181 35.1286L38.8412 40.4487L39.2198 39.9438C39.9291 38.9982 41.0583 38.4335 42.2405 38.4335H55.757C62.0363 22.722 42.8542 14.0847 35.4999 26.9017C28.148 14.0864 8.96359 22.7189 15.2429 38.4335H26.8715V38.4335Z" fill="white"/>
<path d="M41.2166 49.8673C39.5304 52.1154 36.071 51.796 34.8185 49.29L32.1584 43.9699L31.7797 44.4749C31.0704 45.4206 29.9412 45.9852 28.759 45.9852H19.8174C21.1524 47.5915 22.7279 49.2057 24.5555 50.82C29.6629 55.3315 34.6957 58.0362 34.9074 58.1492C35.2776 58.3466 35.7218 58.3466 36.0919 58.1492C36.3036 58.0362 41.3364 55.3315 46.4438 50.82C48.2713 49.2057 49.8469 47.5916 51.1819 45.9852H44.1282L41.2166 49.8673Z" fill="white"/>
<path d="M55.7219 40.9506H42.2407C41.8445 40.9506 41.4715 41.1372 41.2338 41.4541L38.4114 45.2174L33.9295 36.2539C33.5114 35.4174 32.3571 35.3146 31.7969 36.0616L28.1303 40.9506H15.2783C13.6084 41.0172 13.6097 43.402 15.2783 43.4679H28.7596C29.1558 43.4679 29.5287 43.2813 29.7665 42.9644L32.5889 39.2011L37.0707 48.1645C37.4913 49.0059 38.6456 49.1005 39.2033 48.3568L42.87 43.4678H55.7219C57.3919 43.4014 57.3906 41.0166 55.7219 40.9506Z" fill="white"/>
</g>
<defs>
<clipPath id="clip0_38_10">
<rect width="43" height="43" fill="white" transform="translate(14 18)"/>
</clipPath>
</defs>
</svg>
